<?xml version="1.0" encoding="utf-8"?>
<!-- Generator: Adobe Illustrator 18.1.0, SVG Export Plug-In . SVG Version: 6.00 Build 0)  -->
<!DOCTYPE svg PUBLIC "-//W3C//DTD SVG 1.1//EN" "http://www.w3.org/Graphics/SVG/1.1/DTD/svg11.dtd" [
	<!ENTITY st0 "fill-rule:evenodd;clip-rule:evenodd;fill:#CCCCCC;">
	<!ENTITY st1 "fill-rule:evenodd;clip-rule:evenodd;">
	<!ENTITY st2 "fill-rule:evenodd;clip-rule:evenodd;fill:#D71920;">
	<!ENTITY st3 "fill-rule:evenodd;clip-rule:evenodd;fill:#FFFFFF;">
]>
<svg version="1.1" xmlns="http://www.w3.org/2000/svg" xmlns:xlink="http://www.w3.org/1999/xlink" x="0px" y="0px" viewBox="0 0 463.2 201.12" style="enable-background:new 0 0 463.2 201.12;" xml:space="preserve">

<g class="sprite" id="white">
	<g>
		<path style="&st3;" d="M26.833,39.85c5.04,0.239,9.6,0.959,13.68,2.159c3.84,1.2,6,2.16,6.48,2.4c0.24,0.239,0.24,0.72,0.24,1.44
			v6.959l-0.96,1.2c-0.72,0.24-2.88,0-6.479-0.72c-3.601-0.48-7.92-0.96-12.96-1.439h-0.24c-4.08,0-7.2,1.199-9.36,3.84
			c-2.64,2.64-3.84,5.76-3.84,9.6v19.2c0,3.84,1.2,6.96,3.84,9.36c2.16,2.64,5.28,4.08,9.36,4.08h0.24v0.239
			c5.04-0.239,9.359-0.72,12.96-1.44c3.6-0.72,5.76-0.959,6.479-0.72c0.479,0.24,0.72,0.48,0.96,1.2v6.96l-0.24,1.44
			c-0.48,0.24-2.64,0.72-6.48,1.92c-4.08,1.199-8.64,2.16-13.68,2.64v-0.479h-0.24c-7.92,0-14.4-2.16-18.96-6.721
			c-3.12-3.119-5.28-6.479-6.479-10.56c-0.721-2.4-0.961-5.04-0.961-7.92v-19.2c0-2.88,0.24-5.519,0.961-7.68
			c1.199-4.32,3.359-7.92,6.479-10.561c4.559-4.56,11.04-6.96,18.96-7.199H26.833z M69.072,66.249l-0.24-1.92
			c0-3.12,1.44-6,4.08-8.64c2.4-2.641,5.52-3.84,9.121-3.84c3.6,0,6.719,1.199,9.119,3.84c2.4,2.16,3.6,4.56,3.84,7.68l0.48,0.96
			v0.24c-0.24,0.72-0.48,1.2-0.48,1.68c-0.24,0.24-0.48,0.48-1.199,0.48H70.272C69.552,66.729,69.072,66.489,69.072,66.249z
			 M82.033,39.85c4.799,0,9.359,1.199,13.439,3.84c3.84,1.92,6.96,5.039,9.36,9.119c2.399,3.601,3.6,7.92,3.6,12.48v10.32
			c0,0.479,0,0.96-0.24,1.199l-1.199,0.24H70.272l-1.2,0.48c-0.24,0.24-0.479,0.479-0.24,1.199v5.761c0,3.6,1.201,6.72,3.601,9.36
			c2.64,2.64,5.76,3.84,9.601,4.08c4.08-0.24,8.879-0.721,14.159-1.681c0.48,0,0.72,0.24,0.96,0.48c0.24,0.24,0.48,0.48,0.721,1.201
			v6.959c-0.24,0.48-0.48,0.721-0.721,0.961c-0.24,0.239-1.68,0.959-4.32,2.159c-2.64,0.72-6.239,1.44-10.799,1.681
			c-8.16-0.24-14.641-2.4-19.201-6.961c-4.799-4.56-7.199-10.56-7.439-18.239v-19.2c0-4.56,1.2-8.88,3.6-12.48
			c2.16-4.08,5.52-7.199,9.601-9.119C72.673,41.049,76.992,39.85,82.033,39.85z M132.192,18.489c0.24,0.239,0.48,0.72,0.721,1.44
			v87.119l-0.721,1.2c-0.24,0.24-0.48,0.24-0.72,0.24h-10.56l-1.201-0.24l-0.239-1.2V19.93l0.239-1.44l1.201-0.24h10.56
			L132.192,18.489z M160.032,28.329c0.24,0.24,0.24,0.48,0.24,1.2v10.32c0,0.479,0.24,0.959,0.721,1.199
			c0.239,0.24,0.479,0.48,0.959,0.48h10.32l1.2,0.24c0.239,0.239,0.239,0.479,0.239,1.199v8.881c0,0.479,0,0.959-0.239,1.199
			l-1.2,0.24h-10.32c-0.48,0-0.72,0.24-0.959,0.481c-0.481,0.239-0.721,0.479-0.721,1.199v29.52c0,1.44,0.24,2.88,0.96,4.56
			c0.479,1.44,1.2,2.881,2.4,4.32c0.72,0.72,1.68,1.439,3.36,2.16c1.439,0.479,3.359,1.199,5.519,2.4l0.96,0.479l0.239,0.96v8.88
			c0,0.72-0.239,0.96-0.479,1.2c-0.48,0.24-1.2,0.24-2.159,0.24c-4.32,0-8.16-1.2-11.761-3.36c-3.601-1.92-6.479-4.8-8.64-8.399
			c-2.16-3.841-3.36-8.4-3.36-13.44v-54.96l0.24-1.2l1.2-0.24h10.32L160.032,28.329z M213.312,40.329h6.96
			c0.48-0.24,0.96-0.24,1.44,0.24c0.24,0.239,0.24,0.479,0.24,0.96v9.119l-0.24,0.961l-1.44,0.479h-6.96h-0.479
			c-2.881,0-5.28,0.72-7.441,2.4l-2.16,2.88c-0.48,0.72-0.72,1.92-0.72,3.12v46.56l-0.48,1.2c-0.24,0.24-0.72,0.24-1.2,0.24h-10.319
			c-0.479,0-0.72,0-0.96-0.24l-0.48-1.2V61.69h0.24v-0.48v-0.48v-0.239c0-1.681,0.24-3.12,0.48-4.32
			c0.72-2.399,1.68-4.56,3.359-6.72c0.721-1.2,1.92-2.4,3.12-3.36c0.72-0.72,1.681-1.44,2.88-1.92c3.841-2.64,8.4-3.84,13.681-3.84
			C213.073,40.089,213.073,40.089,213.312,40.329z M259.633,80.889h-16.8c-1.681,0-3.36,0.48-4.561,1.681
			c-1.2,1.2-1.68,2.88-1.68,4.56v2.4c0,2.16,0.479,3.84,1.68,5.04c1.2,1.2,2.88,1.68,4.561,1.68h6c2.64,0,5.04-0.96,7.199-2.64
			c2.16-1.68,3.841-4.32,5.28-7.92v-3.36c0-0.72-0.24-0.96-0.479-1.2C260.592,80.889,260.352,80.889,259.633,80.889z M274.272,64.57
			l0.48,42.239l-0.721,1.2c-0.239,0.24-0.479,0.24-0.96,0.24h-8.88l-1.2-0.24l-0.239-1.2v-1.92c0-0.72,0-0.959-0.24-1.199
			c-0.24-0.48-0.48-0.721-0.72-0.721c-0.721,0-1.681,0.481-2.88,1.68c-1.2,0.721-2.641,1.44-4.32,2.4
			c-1.92,0.721-3.84,0.96-5.76,1.2h-6c-5.761-0.24-10.32-1.92-13.921-5.28c-3.6-3.359-5.52-7.92-5.52-13.439v-0.721
			c0-5.52,1.92-10.08,5.52-13.199c2.161-2.16,4.561-3.601,7.681-4.32c1.68-0.72,3.84-0.96,6.24-0.96h16.8c0.72,0,0.96,0,1.2-0.24
			c0.239-0.239,0.479-0.72,0.479-1.2V64.57c-0.479-3.841-1.92-6.96-4.08-9.12c-2.16-2.16-5.04-3.36-8.16-3.6
			c-4.56,0-9.359,0.479-14.399,1.199l-0.96-0.24c-0.24-0.239-0.48-0.48-0.24-0.959v-6.961l0.24-1.199
			c0.239-0.48,1.68-1.2,4.319-1.92c2.641-0.961,6.48-1.681,11.04-1.92c7.44,0.239,13.44,2.64,18,7.199
			C271.633,51.129,274.032,57.129,274.272,64.57z"/>
		<path style="&st3;" d="M417.477,0.249h-54.569c-12.207,0.96-22.739,5.76-31.354,14.64c-8.616,8.881-13.404,19.44-14.361,31.681
			v54.96c0.957,12.24,5.745,22.56,14.361,31.44c8.138,7.92,17.711,12.721,28.96,14.16l1.436,0.48l16.994-0.48
			c-0.24,0.24-0.24,0.48,0,0.721c-0.24,11.279-2.395,21.119-6.463,29.52c-4.547,9.6-11.728,17.52-21.302,24
			c7.898-3.12,15.078-6.24,21.302-9.36l7.42-4.319c9.334-6.24,16.274-13.44,20.822-21.36c3.351-5.52,5.505-11.76,6.462-18.479
			c-0.239-0.24-0.239-0.48,0-0.721h12.685c11.01-1.439,20.584-6.24,28.96-14.16c8.617-8.88,13.404-19.199,14.361-31.44V46.57
			c-0.957-12.24-5.744-22.8-14.361-31.681C439.975,6.009,429.445,1.209,417.477,0.249z M433.992,48.009v51.36v0.48
			c-0.718,4.56-2.392,8.399-5.505,12l-0.239,0.239h-0.239c-3.59,3.36-7.419,5.28-11.968,5.761H365.3h-0.957
			c-4.548-0.48-8.377-2.4-11.968-5.761l-0.239-0.239c-3.11-3.601-5.026-7.44-5.505-12l-0.239-0.48v-51.36l0.239-0.479
			c0.479-4.561,2.395-8.4,5.505-12v-0.24h0.239c3.591-3.12,7.42-5.04,11.968-5.76h0.957h50.74c4.549,0.72,8.378,2.64,11.968,5.76
			h0.239l0.239,0.24c3.112,3.6,4.787,7.439,5.505,12V48.009z"/>
	</g>
</g>
</svg>
